<svg xmlns="http://www.w3.org/2000/svg" width="1100" height="760" viewBox="0 0 1100 760">
<rect width="100%" height="100%" fill="white"/>
<style>text{font-family:Arial,Helvetica,sans-serif;fill:#222} .grid{stroke:#d9d9d9;stroke-width:1} .axis{stroke:#333;stroke-width:1.5} .legend{font-size:18px} .tick{font-size:16px} .title{font-size:24px;font-weight:600} .label{font-size:20px}</style>
<line class="grid" x1="110.00" y1="70" x2="110.00" y2="670"/>
<text class="tick" x="110.00" y="698" text-anchor="middle">10^0</text>
<line class="grid" x1="377.07" y1="70" x2="377.07" y2="670"/>
<text class="tick" x="377.07" y="698" text-anchor="middle">10^1</text>
<line class="grid" x1="644.14" y1="70" x2="644.14" y2="670"/>
<text class="tick" x="644.14" y="698" text-anchor="middle">10^2</text>
<line class="grid" x1="911.20" y1="70" x2="911.20" y2="670"/>
<text class="tick" x="911.20" y="698" text-anchor="middle">10^3</text>
<line class="grid" x1="110" y1="670.00" x2="1060" y2="670.00"/>
<text class="tick" x="94" y="676.00" text-anchor="end">10^-1</text>
<line class="grid" x1="110" y1="520.00" x2="1060" y2="520.00"/>
<text class="tick" x="94" y="526.00" text-anchor="end">10^0</text>
<line class="grid" x1="110" y1="370.00" x2="1060" y2="370.00"/>
<text class="tick" x="94" y="376.00" text-anchor="end">10^1</text>
<line class="grid" x1="110" y1="220.00" x2="1060" y2="220.00"/>
<text class="tick" x="94" y="226.00" text-anchor="end">10^2</text>
<line class="grid" x1="110" y1="70.00" x2="1060" y2="70.00"/>
<text class="tick" x="94" y="76.00" text-anchor="end">10^3</text>
<line class="axis" x1="110" y1="670" x2="1060" y2="670"/>
<line class="axis" x1="110" y1="70" x2="110" y2="670"/>
<path d="M 110.00 141.95 L 190.40 144.45 L 237.42 149.80 L 270.79 149.80 L 296.67 162.42 L 317.82 167.84 L 335.70 167.84 L 351.19 167.84 L 364.85 167.84 L 377.07 171.29 L 388.12 171.29 L 398.21 175.89 L 407.50 178.77 L 416.09 178.77 L 424.10 178.77 L 431.58 178.77 L 438.61 178.77 L 445.24 178.77 L 451.51 178.77 L 457.46 178.77 L 463.12 178.77 L 468.52 178.77 L 473.67 178.77 L 483.35 178.77 L 487.89 184.91 L 492.27 184.91 L 500.56 184.91 L 504.49 184.91 L 511.98 191.31 L 519.01 191.31 L 522.37 191.31 L 528.82 193.05 L 534.92 193.05 L 540.72 193.05 L 548.91 193.05 L 554.07 193.05 L 559.01 193.05 L 566.04 194.46 L 572.67 194.46 L 578.94 194.46 L 584.89 194.46 L 590.55 197.03 L 595.94 197.03 L 602.77 197.03 L 607.63 197.03 L 613.82 197.03 L 619.70 197.03 L 625.29 197.03 L 631.92 197.03 L 638.19 198.40 L 644.14 204.20 L 649.80 204.20 L 656.24 204.20 L 661.35 204.20 L 667.20 204.20 L 673.67 224.18 L 679.80 224.37 L 685.62 224.37 L 691.16 224.37 L 697.19 224.37 L 703.62 224.37 L 709.04 225.92 L 715.49 226.20 L 721.00 226.20 L 727.40 228.56 L 732.92 232.04 L 739.22 235.36 L 745.19 242.41 L 750.88 242.41 L 757.17 250.91 L 762.73 250.91 L 768.82 251.62 L 774.99 251.62 L 780.84 252.61 L 786.76 252.61 L 792.71 252.61 L 798.67 264.26 L 804.64 273.69 L 810.59 281.19 L 816.51 281.19 L 822.39 283.45 L 828.23 283.45 L 834.24 287.09 L 840.16 291.00 L 846.21 300.65 L 852.15 311.10 L 857.98 311.10 L 864.06 314.80 L 870.00 318.40 L 875.81 329.82 L 881.79 341.13 L 887.76 342.37 L 893.71 343.08 L 899.63 344.12 L 905.62 344.12 L 911.55 344.12 L 917.41 365.75 L 923.41 370.94 L 929.32 372.43 L 935.31 372.43 L 941.19 372.43 L 947.12 372.43 L 953.09 372.43 L 959.08 372.43 L 964.99 385.37 L 970.89 404.07 L 976.84 406.98 L 982.81 407.02 L 988.72 407.02 L 994.69 430.69 L 1000.63 431.54 L 1006.54 432.16 L 1012.50 433.53 L 1018.45 460.33 L 1024.37 462.07 L 1030.29 465.19 L 1036.25 465.73 L 1042.21 476.93 L 1048.13 476.93 L 1054.06 493.86 L 1060.00 505.91 L 1060.00 596.37 L 1054.06 581.75 L 1048.13 580.52 L 1042.21 556.22 L 1036.25 555.06 L 1030.29 530.73 L 1024.37 530.73 L 1018.45 523.04 L 1012.50 496.37 L 1006.54 492.24 L 1000.63 492.24 L 994.69 474.36 L 988.72 463.76 L 982.81 446.28 L 976.84 434.82 L 970.89 434.82 L 964.99 434.82 L 959.08 421.80 L 953.09 409.64 L 947.12 409.64 L 941.19 409.05 L 935.31 409.05 L 929.32 405.14 L 923.41 377.15 L 917.41 377.15 L 911.55 376.44 L 905.62 375.96 L 899.63 373.88 L 893.71 373.88 L 887.76 372.75 L 881.79 351.28 L 875.81 351.28 L 870.00 345.27 L 864.06 343.78 L 857.98 341.00 L 852.15 341.00 L 846.21 322.27 L 840.16 322.27 L 834.24 322.27 L 828.23 314.49 L 822.39 314.49 L 816.51 314.49 L 810.59 310.86 L 804.64 300.41 L 798.67 293.66 L 792.71 290.67 L 786.76 290.67 L 780.84 287.59 L 774.99 287.59 L 768.82 287.26 L 762.73 259.65 L 757.17 259.65 L 750.88 257.79 L 745.19 257.79 L 739.22 253.62 L 732.92 252.90 L 727.40 252.90 L 721.00 252.03 L 715.49 252.03 L 709.04 250.70 L 703.62 245.65 L 697.19 245.60 L 691.16 245.60 L 685.62 239.99 L 679.80 237.01 L 673.67 236.84 L 667.20 232.04 L 661.35 232.04 L 656.24 232.04 L 649.80 232.04 L 644.14 232.04 L 638.19 231.24 L 631.92 231.24 L 625.29 230.09 L 619.70 230.09 L 613.82 230.09 L 607.63 230.09 L 602.77 230.09 L 595.94 230.09 L 590.55 230.09 L 584.89 230.09 L 578.94 212.83 L 572.67 212.83 L 566.04 205.77 L 559.01 202.29 L 554.07 202.29 L 548.91 202.29 L 540.72 202.29 L 534.92 202.29 L 528.82 201.41 L 522.37 201.41 L 519.01 201.41 L 511.98 201.41 L 504.49 200.25 L 500.56 200.25 L 492.27 200.25 L 487.89 200.25 L 483.35 199.61 L 473.67 199.61 L 468.52 199.61 L 463.12 199.61 L 457.46 199.61 L 451.51 199.61 L 445.24 199.61 L 438.61 199.61 L 431.58 199.61 L 424.10 199.61 L 416.09 199.61 L 407.50 199.61 L 398.21 199.61 L 388.12 199.07 L 377.07 199.07 L 364.85 194.92 L 351.19 194.92 L 335.70 183.86 L 317.82 183.86 L 296.67 175.89 L 270.79 175.89 L 237.42 175.89 L 190.40 173.84 L 110.00 166.67 Z" fill="#1f77b4" fill-opacity="0.18" stroke="none"/>
<path d="M 110.00 152.37 L 190.40 162.40 L 237.42 162.44 L 270.79 162.44 L 296.67 171.38 L 317.82 173.86 L 335.70 173.86 L 351.19 174.03 L 364.85 174.03 L 377.07 177.81 L 388.12 177.81 L 398.21 192.13 L 407.50 194.17 L 416.09 194.17 L 424.10 194.17 L 431.58 194.17 L 438.61 194.17 L 445.24 194.17 L 451.51 194.17 L 457.46 194.17 L 463.12 194.17 L 468.52 194.17 L 473.67 194.17 L 483.35 194.17 L 487.89 196.89 L 492.27 196.89 L 500.56 196.89 L 504.49 196.89 L 511.98 198.49 L 519.01 198.49 L 522.37 198.49 L 528.82 198.49 L 534.92 199.57 L 540.72 199.57 L 548.91 199.57 L 554.07 199.57 L 559.01 199.57 L 566.04 199.65 L 572.67 199.65 L 578.94 199.65 L 584.89 209.09 L 590.55 209.09 L 595.94 209.09 L 602.77 216.79 L 607.63 216.79 L 613.82 216.79 L 619.70 216.79 L 625.29 216.79 L 631.92 216.79 L 638.19 223.99 L 644.14 224.37 L 649.80 224.37 L 656.24 224.37 L 661.35 224.37 L 667.20 224.37 L 673.67 227.51 L 679.80 228.09 L 685.62 229.03 L 691.16 229.03 L 697.19 229.03 L 703.62 229.03 L 709.04 235.19 L 715.49 235.53 L 721.00 235.53 L 727.40 250.10 L 732.92 251.30 L 739.22 251.30 L 745.19 251.49 L 750.88 251.49 L 757.17 251.75 L 762.73 251.75 L 768.82 262.39 L 774.99 267.34 L 780.84 267.34 L 786.76 280.71 L 792.71 280.71 L 798.67 281.49 L 804.64 291.77 L 810.59 293.01 L 816.51 295.49 L 822.39 295.49 L 828.23 295.49 L 834.24 305.73 L 840.16 312.63 L 846.21 313.32 L 852.15 316.41 L 857.98 316.41 L 864.06 327.36 L 870.00 342.74 L 875.81 344.83 L 881.79 344.83 L 887.76 345.35 L 893.71 356.18 L 899.63 360.87 L 905.62 371.03 L 911.55 373.73 L 917.41 373.86 L 923.41 373.86 L 929.32 374.84 L 935.31 376.23 L 941.19 376.23 L 947.12 401.23 L 953.09 403.57 L 959.08 403.57 L 964.99 407.88 L 970.89 409.13 L 976.84 421.15 L 982.81 431.02 L 988.72 432.21 L 994.69 432.97 L 1000.63 434.11 L 1006.54 461.67 L 1012.50 466.10 L 1018.45 467.92 L 1024.37 467.92 L 1030.29 495.10 L 1036.25 495.10 L 1042.21 503.63 L 1048.13 522.92 L 1054.06 529.12 L 1060.00 553.47" fill="none" stroke="#1f77b4" stroke-width="4"/>
<path d="M 110.00 154.07 L 190.40 158.63 L 237.42 162.07 L 270.79 162.33 L 296.67 169.73 L 317.82 176.66 L 335.70 176.66 L 351.19 178.31 L 364.85 178.31 L 377.07 180.78 L 388.12 180.78 L 398.21 186.98 L 407.50 188.57 L 416.09 188.57 L 424.10 188.57 L 431.58 188.57 L 438.61 188.57 L 445.24 188.57 L 451.51 188.57 L 457.46 188.57 L 463.12 188.57 L 468.52 188.57 L 473.67 188.57 L 483.35 188.57 L 487.89 191.47 L 492.27 191.47 L 500.56 191.47 L 504.49 191.47 L 511.98 193.50 L 519.01 193.50 L 522.37 193.50 L 528.82 196.24 L 534.92 198.04 L 540.72 198.04 L 548.91 198.04 L 554.07 198.04 L 559.01 198.88 L 566.04 200.79 L 572.67 202.38 L 578.94 202.38 L 584.89 209.09 L 590.55 210.92 L 595.94 210.92 L 602.77 212.39 L 607.63 212.39 L 613.82 212.39 L 619.70 212.39 L 625.29 212.39 L 631.92 213.29 L 638.19 215.81 L 644.14 219.06 L 649.80 219.06 L 656.24 219.06 L 661.35 219.06 L 667.20 219.06 L 673.67 224.62 L 679.80 227.37 L 685.62 228.75 L 691.16 230.59 L 697.19 230.59 L 703.62 230.60 L 709.04 235.73 L 715.49 238.40 L 721.00 238.40 L 727.40 240.39 L 732.92 242.36 L 739.22 246.65 L 745.19 249.16 L 750.88 249.16 L 757.17 253.00 L 762.73 254.27 L 768.82 264.80 L 774.99 266.35 L 780.84 270.37 L 786.76 271.94 L 792.71 271.94 L 798.67 277.52 L 804.64 283.98 L 810.59 290.63 L 816.51 293.01 L 822.39 299.57 L 828.23 299.57 L 834.24 304.03 L 840.16 307.53 L 846.21 310.27 L 852.15 315.60 L 857.98 315.60 L 864.06 325.86 L 870.00 332.73 L 875.81 336.50 L 881.79 338.63 L 887.76 344.06 L 893.71 348.03 L 899.63 351.52 L 905.62 353.72 L 911.55 360.53 L 917.41 366.31 L 923.41 368.47 L 929.32 377.69 L 935.31 381.51 L 941.19 381.75 L 947.12 383.77 L 953.09 387.43 L 959.08 393.45 L 964.99 399.86 L 970.89 414.04 L 976.84 418.25 L 982.81 426.56 L 988.72 430.62 L 994.69 440.54 L 1000.63 445.31 L 1006.54 452.24 L 1012.50 457.20 L 1018.45 470.00 L 1024.37 474.79 L 1030.29 479.02 L 1036.25 483.53 L 1042.21 488.57 L 1048.13 491.31 L 1054.06 497.83 L 1060.00 505.71" fill="none" stroke="#ff7f0e" stroke-width="3" stroke-dasharray="10 7"/>
<text class="title" x="550.0" y="38" text-anchor="middle">Agregation des runs - PSO sur f1</text>
<text class="label" x="550.0" y="742" text-anchor="middle">Nombre d evaluations</text>
<g transform="translate(28 380.0) rotate(-90)"><text class="label" text-anchor="middle">Best noise-free fitness - Fopt</text></g>
<text class="tick" x="1056" y="52" text-anchor="end">Budget commun : 3614 evaluations</text>
<rect x="820" y="82" width="230" height="108" rx="10" ry="10" fill="white" stroke="#cccccc"/>
<line x1="838" y1="110" x2="880" y2="110" stroke="#1f77b4" stroke-width="4"/>
<text class="legend" x="895" y="116">Mediane</text>
<line x1="838" y1="144" x2="880" y2="144" stroke="#ff7f0e" stroke-width="3" stroke-dasharray="10 7"/>
<text class="legend" x="895" y="150">Moyenne</text>
<rect x="838" y="162" width="42" height="18" fill="#1f77b4" fill-opacity="0.18" stroke="none"/>
<text class="legend" x="895" y="178">IQR [Q1, Q3]</text>
</svg>